<?xml version="1.0" encoding="UTF-8"?><svg id="Layer_1" xmlns="http://www.w3.org/2000/svg" xmlns:xlink="http://www.w3.org/1999/xlink" viewBox="0 0 454.84 434.78"><defs><style>.cls-1{fill:url(#linear-gradient);}</style><linearGradient id="linear-gradient" x1="0" y1="219.39" x2="454.84" y2="219.39" gradientTransform="translate(0 436.78) scale(1 -1)" gradientUnits="userSpaceOnUse"><stop offset="0" stop-color="#ff9934"/><stop offset="1" stop-color="#6a9800"/></linearGradient></defs><path class="cls-1" d="m109.71,171.85c-8.22-20.42-27.81-41.58-56.33-51.81C25.96,110.21,2.82,126.34.38,157.06c-2.83,35.68,10.11,65.78,34.62,89.1,15.15,14.44,34.58,16.96,53.15,7.75,24.59-12.12,34.23-42.64,21.52-82.06h.04Zm-8.46,35.33c-.35-7.2-1.81-15.07-4.48-23.41-6.69-16.64-22.54-33.95-45.63-42.33-12.31-4.48-23.53-2.44-31.43,4.56,7.16-11.02,20.14-15.38,34.7-10.15,21.75,7.79,36.74,23.96,43,39.54,3.78,11.8,4.96,22.54,3.86,31.79Zm114.28-123.96c-4.25-26.32-16.6-54.64-43.39-73.33-21.01-14.67-46.97-9.24-61.49,11.61-27.03,38.71-18.17,105.04,17.82,134.23,13.38,10.86,28.09,13.06,43.79,7.47,27.85-9.91,45.12-39.22,43.31-80.02l-.04.04Zm-22.5,34.26c1.77-7.36,2.71-15.7,2.6-24.98-1.46-19-11.45-41.86-30.88-58.34-10.39-8.77-21.64-10.66-31.16-6.41,10.03-8.54,23.64-8.34,35.92,1.97,18.37,15.42,27.81,36.86,29.19,54.64.12,13.14-1.89,24.31-5.66,33.2v-.08ZM348.34,28.66c-10.5-24.39-35.17-34.58-57.83-25.22-42.13,17.39-67.62,78.56-51.69,123.8,5.94,16.84,17.27,27.07,33.36,31.28,28.52,7.44,57.71-7.51,76.44-43.08,9.52-24.71,13.1-55.7-.28-86.78h0Zm-8.22,70.69c-5.23,11.88-11.64,20.97-18.65,27.18,4.6-5.78,8.85-12.86,12.55-21.24,6.45-17.74,6.85-43-3.89-66.92-5.74-12.75-15.11-19.71-25.41-20.38,12.51-2.95,24.67,3.54,31.51,18.57,10.23,22.46,9.95,46.15,3.93,62.79h-.04Zm110.31,45.99c-11.02-32.02-40.6-43.86-68.73-26.95-23.33,14.04-38.32,36.07-45.48,63.06-10.54,39.58,19.28,77.18,57.71,74.55,13.93-.94,25.1-5.66,35.68-15.07,21.83-19.32,31.59-64.24,20.81-95.6h0Zm-18.41,68.18c-7.04,10.74-14.79,18.57-22.7,23.41,5.47-4.84,10.74-11.09,15.74-18.69,9.17-16.33,13.53-41.15,6.73-66.68-3.62-13.61-11.76-22.15-21.83-24.67,12.82-.67,23.76,7.95,28.13,24,6.53,24,2.52,47.29-6.06,62.59v.04Zm-105.43,201.97c2.12-14.67,20.77-22.11,22.86-23.45-9.87,2.4-18.73,6.02-24.51,14.12-.24-10.82.67-18.41,3.5-27.54,2.83-9.21,10.03-18.57,18.25-26.4-1.97,1.1-3.27,1.69-4.41,2.48-9.8,6.29-15.54,15.11-19.71,24.67-2.32,5.35-3.62,10.98-5.43,16.48-.24.67-.83,1.22-1.18,1.77,1.38-23.13,2.71-46.15,4.05-69.12h-.39c-2.83,24.43-6.26,47.17-10.74,70.93-1.73-3.93-2.99-5.7-5.04-9.44-2.05-3.78-7.79-9.01-13.02-10.46,14.99,12.82,14.16,36.55,13.45,38.43,0,0,0,.47-.08,1.22-5.19,0-10.54-.51-16.01-1.69-2.48-.51-4.92-1.1-7.4-1.69.16-2.99.24-6.02.43-9.01.2-3.15.63-6.29.83-9.44.2-2.99.39-5.94.55-8.93l-24.51-.39,24.86-5.63c.04-.9.12-1.81.16-2.71.12-1.93.28-3.89.43-5.82l-21.4-.08,21.79-5.23c.16-2.01.28-3.97.39-5.98.24-3.7.16-7.4.35-11.09.2-3.15.75-6.29.94-9.44.2-2.6,0-5.27.2-7.87.16-2.16.67-4.25.83-6.41.47-5.63.79-11.29,1.26-16.92,0-.43.63-1.1.98-1.14,5.66-.43,11.33-.75,16.96-1.14.98-.08,2.05-.35,2.87-.94,3.38-2.32,2.99-7-.71-9.6-6.92-4.84-13.89-9.64-20.85-14.44-3.23-2.24-6.45-4.48-9.64-6.69l-4.48-3.07-95.6,13.57,85.45-20.61c-1.42-.98-2.87-1.93-4.25-2.95-2.05-1.46-6.92-4.84-12.9-8.93l-31,2.56,25.89-6.06c-11.45-7.83-24.82-16.92-30.13-20.54-2.2-1.49-4.25-3.3-6.41-4.88-3.11-2.24-4.84-2.09-7.67.59-1.57,1.46-3.07,3.03-4.72,4.41-1.57,1.3-2.83,2.95-4.41,4.21-1.93,1.53-3.66,3.34-5.51,5.04-2.4,2.2-4.8,4.41-7.2,6.61l-27.58,25.33,23.92-2.01-31.59,9.09-12.16,11.21c-4.6,4.25-9.24,8.5-13.85,12.79-3.38,3.11-6.77,6.22-10.15,9.32-2.01,1.85-2.64,4.09-1.81,6.33,1.02,2.68,2.64,3.74,5.43,3.54,3.3-.24,6.61-.47,9.91-.71,2.68-.2,5.39-.43,8.06-.63.79,3.78,1.57,7.59,2.36,11.37l83.24-16.33-81.39,25.18c1.42,6.88,2.87,13.77,4.29,20.65l36.59-3.97-34.93,12c3.19,15.38,6.37,30.72,9.56,46.03l21.24-1.85-19.87,8.42c.83,4.05,1.69,8.06,2.52,12.12-32.69,1.42-57.79-23.64-62.71-61.33-5.47-42.01,7.28-78.95,26.28-114.32,17.7-33.01,40.28-61.17,70.69-81.83,32.34-21.95,65.42-22.9,95.08,2.01,41.42,34.78,75.89,76.63,93.9,131.16,2.28,6.88,3.19,14.24,4.76,21.4,3.58,39.89-18.29,72.97-49.96,83.75l.16-.08Zm-76.48-35.68l-.94,27.5-2.83-.71c-2.36-.55-4.68-.94-6.96-1.1l.16-7.28-29.39,5.39,29.5-10.86.12-6.77c-1.38-20.18-15.34-35.52-31.2-34.26h0c-12.98,1.02-23.17,12.82-25.69,28.13l24.98-1.18-25.53,6.96c-.04,1.57,0,3.23.08,4.84l1.22,7.63,28.21-5.39-27.46,10.11,3.19,20.26c-3.15,1.49-6.33,2.91-9.56,4.21l-7.12-41.27c-1.65-23.96,14.75-44.77,36.66-46.5h0c21.87-1.73,40.95,16.33,42.6,40.28h-.04Zm-24.39,3.38c-.16-2.28,1.42-4.25,3.5-4.41s3.89,1.53,4.05,3.82-1.42,4.25-3.5,4.41-3.89-1.53-4.05-3.82Z"/></svg>