<?xml version="1.0" encoding="UTF-8"?><svg id="Layer_1" xmlns="http://www.w3.org/2000/svg" xmlns:xlink="http://www.w3.org/1999/xlink" viewBox="0 0 431.1 110.53"><defs><style>.cls-1{letter-spacing:-.04em;}.cls-1,.cls-2,.cls-3,.cls-4,.cls-5,.cls-6,.cls-7{isolation:isolate;}.cls-1,.cls-2,.cls-5,.cls-6,.cls-7{font-family:Montserrat-SemiBold, Montserrat;font-size:41.93px;font-weight:600;}.cls-2{letter-spacing:-.05em;}.cls-3{font-family:Lato-Regular, Lato;font-size:22.31px;letter-spacing:.05em;}.cls-5{letter-spacing:-.06em;}.cls-6{letter-spacing:-.06em;}.cls-8{fill:url(#linear-gradient);}.cls-7{letter-spacing:-.04em;}</style><linearGradient id="linear-gradient" x1="0" y1="1035.45" x2="115.62" y2="1035.45" gradientTransform="translate(0 -980.19)" gradientUnits="userSpaceOnUse"><stop offset="0" stop-color="#ff9934"/><stop offset="1" stop-color="#6a9800"/></linearGradient></defs><g><g class="cls-4"><text class="cls-3" transform="translate(132.22 106.44)"><tspan x="0" y="0">Refuge de la 2ème chance</tspan></text></g><g><g class="cls-4"><text class="cls-6" transform="translate(128.97 78.85)"><tspan x="0" y="0">P</tspan></text></g><g class="cls-4"><text class="cls-1" transform="translate(157.56 78.85)"><tspan x="0" y="0">a</tspan></text></g><g class="cls-4"><text class="cls-2" transform="translate(182.21 78.85)"><tspan x="0" y="0">t</tspan></text></g><g class="cls-4"><text class="cls-5" transform="translate(198.82 78.85)"><tspan x="0" y="0">t</tspan></text></g><g class="cls-4"><text class="cls-1" transform="translate(215.21 78.85)"><tspan x="0" y="0">es d’</tspan></text></g><g class="cls-4"><text class="cls-7" transform="translate(305.48 78.85)"><tspan x="0" y="0">E</tspan></text></g><g class="cls-4"><text class="cls-1" transform="translate(331.9 78.85)"><tspan x="0" y="0">spoir</tspan></text></g></g></g><path class="cls-8" d="m27.89,43.68c-2.09-5.19-7.07-10.57-14.32-13.17C6.6,28.01.72,32.11.1,39.92c-.72,9.07,2.57,16.72,8.8,22.65,3.85,3.67,8.79,4.31,13.51,1.97,6.25-3.08,8.7-10.84,5.47-20.86h.01Zm-2.15,8.98c-.09-1.83-.46-3.83-1.14-5.95-1.7-4.23-5.73-8.63-11.6-10.76-3.13-1.14-5.98-.62-7.99,1.16,1.82-2.8,5.12-3.91,8.82-2.58,5.53,1.98,9.34,6.09,10.93,10.05.96,3,1.26,5.73.98,8.08Zm29.05-31.51c-1.08-6.69-4.22-13.89-11.03-18.64-5.34-3.73-11.94-2.35-15.63,2.95-6.87,9.84-4.62,26.7,4.53,34.12,3.4,2.76,7.14,3.32,11.13,1.9,7.08-2.52,11.47-9.97,11.01-20.34h-.01Zm-5.72,8.73c.45-1.87.69-3.99.66-6.35-.37-4.83-2.91-10.64-7.85-14.83-2.64-2.23-5.5-2.71-7.92-1.63,2.55-2.17,6.01-2.12,9.13.5,4.67,3.92,7.07,9.37,7.42,13.89.03,3.34-.48,6.18-1.44,8.44,0,0,0-.02,0-.02ZM88.55,7.28c-2.67-6.2-8.94-8.79-14.7-6.41-10.71,4.42-17.19,19.97-13.14,31.47,1.51,4.28,4.39,6.88,8.48,7.95,7.25,1.89,14.67-1.91,19.43-10.95,2.42-6.28,3.33-14.16-.07-22.06h0Zm-2.09,17.97c-1.33,3.02-2.96,5.33-4.74,6.91,1.17-1.47,2.25-3.27,3.19-5.4,1.64-4.51,1.74-10.93-.99-17.01-1.46-3.24-3.84-5.01-6.46-5.18,3.18-.75,6.27.9,8.01,4.72,2.6,5.71,2.53,11.73,1,15.96h-.01Zm28.04,11.69c-2.8-8.14-10.32-11.15-17.47-6.85-5.93,3.57-9.74,9.17-11.56,16.03-2.68,10.06,4.9,19.62,14.67,18.95,3.54-.24,6.38-1.44,9.07-3.83,5.55-4.91,8.03-16.33,5.29-24.3h0Zm-4.68,17.33c-1.79,2.73-3.76,4.72-5.77,5.95,1.39-1.23,2.73-2.82,4-4.75,2.33-4.15,3.44-10.46,1.71-16.95-.92-3.46-2.99-5.63-5.55-6.27,3.26-.17,6.04,2.02,7.15,6.1,1.66,6.1.64,12.02-1.54,15.91h0Zm-26.8,51.36c.54-3.73,5.28-5.62,5.81-5.96-2.51.61-4.76,1.53-6.23,3.59-.06-2.75.17-4.68.89-7,.72-2.34,2.55-4.72,4.64-6.71-.5.28-.83.43-1.12.63-2.49,1.6-3.95,3.84-5.01,6.27-.59,1.36-.92,2.79-1.38,4.19-.06.17-.21.31-.3.45.35-5.88.69-11.73,1.03-17.57h-.1c-.72,6.21-1.59,11.99-2.73,18.03-.44-1-.76-1.45-1.28-2.4-.52-.96-1.98-2.29-3.31-2.66,3.81,3.26,3.6,9.29,3.42,9.77,0,0,0,.12-.02.31-1.32,0-2.68-.13-4.07-.43-.63-.13-1.25-.28-1.88-.43.04-.76.06-1.53.11-2.29.05-.8.16-1.6.21-2.4.05-.76.1-1.51.14-2.27l-6.23-.1,6.32-1.43c.01-.23.03-.46.04-.69.03-.49.07-.99.11-1.48l-5.44-.02,5.54-1.33c.04-.51.07-1.01.1-1.52.06-.94.04-1.88.09-2.82.05-.8.19-1.6.24-2.4.05-.66,0-1.34.05-2,.04-.55.17-1.08.21-1.63.12-1.43.2-2.87.32-4.3,0-.11.16-.28.25-.29,1.44-.11,2.88-.19,4.31-.29.25-.02.52-.09.73-.24.86-.59.76-1.78-.18-2.44-1.76-1.23-3.53-2.45-5.3-3.67-.82-.57-1.64-1.14-2.45-1.7l-1.14-.78-24.3,3.45,21.72-5.24c-.36-.25-.73-.49-1.08-.75-.52-.37-1.76-1.23-3.28-2.27l-7.88.65,6.58-1.54c-2.91-1.99-6.31-4.3-7.66-5.22-.56-.38-1.08-.84-1.63-1.24-.79-.57-1.23-.53-1.95.15-.4.37-.78.77-1.2,1.12-.4.33-.72.75-1.12,1.07-.49.39-.93.85-1.4,1.28-.61.56-1.22,1.12-1.83,1.68l-7.01,6.44,6.08-.51-8.03,2.31-3.09,2.85c-1.17,1.08-2.35,2.16-3.52,3.25-.86.79-1.72,1.58-2.58,2.37-.51.47-.67,1.04-.46,1.61.26.68.67.95,1.38.9.84-.06,1.68-.12,2.52-.18.68-.05,1.37-.11,2.05-.16.2.96.4,1.93.6,2.89l21.16-4.15-20.69,6.4c.36,1.75.73,3.5,1.09,5.25l9.3-1.01-8.88,3.05c.81,3.91,1.62,7.81,2.43,11.7l5.4-.47-5.05,2.14c.21,1.03.43,2.05.64,3.08-8.31.36-14.69-6.01-15.94-15.59-1.39-10.68,1.85-20.07,6.68-29.06,4.5-8.39,10.24-15.55,17.97-20.8,8.22-5.58,16.63-5.82,24.17.51,10.53,8.84,19.29,19.48,23.87,33.34.58,1.75.81,3.62,1.21,5.44.91,10.14-4.65,18.55-12.7,21.29l.04-.02h0Zm-19.44-9.07l-.24,6.99-.72-.18c-.6-.14-1.19-.24-1.77-.28l.04-1.85-7.47,1.37,7.5-2.76.03-1.72c-.35-5.13-3.9-9.03-7.93-8.71h0c-3.3.26-5.89,3.26-6.53,7.15l6.35-.3-6.49,1.77c0,.4,0,.82.02,1.23l.31,1.94,7.17-1.37-6.98,2.57.81,5.15c-.8.38-1.61.74-2.43,1.07l-1.81-10.49c-.42-6.09,3.75-11.38,9.32-11.82h0c5.56-.44,10.41,4.15,10.83,10.24,0,0,0,0,0,0Zm-6.2.86c-.04-.58.36-1.08.89-1.12s.99.39,1.03.97-.36,1.08-.89,1.12-.99-.39-1.03-.97Z"/></svg>