<?xml version="1.0" encoding="UTF-8"?><svg id="Layer_1" xmlns="http://www.w3.org/2000/svg" viewBox="0 0 451.93 432"><defs><style>.cls-1{fill:#fff;}</style></defs><path class="cls-1" d="m109.01,170.75c-8.17-20.29-27.64-41.32-55.97-51.48C25.79,109.5,2.81,125.53.38,156.06c-2.81,35.45,10.05,65.36,34.4,88.53,15.05,14.35,34.36,16.85,52.81,7.7,24.43-12.04,34.01-42.37,21.38-81.54h.04Zm-8.4,35.1c-.35-7.15-1.8-14.97-4.46-23.26-6.65-16.53-22.4-33.73-45.34-42.06-12.23-4.46-23.37-2.42-31.23,4.53,7.11-10.94,20.01-15.28,34.48-10.08,21.62,7.74,36.51,23.8,42.72,39.28,3.75,11.73,4.93,22.4,3.83,31.58Zm113.55-123.17c-4.22-26.15-16.5-54.29-43.11-72.86-20.87-14.58-46.67-9.19-61.09,11.53-26.85,38.46-18.06,104.37,17.71,133.37,13.29,10.79,27.91,12.98,43.51,7.43,27.67-9.85,44.83-38.97,43.04-79.51l-.04.04Zm-22.36,34.05c1.76-7.31,2.7-15.6,2.58-24.82-1.45-18.88-11.37-41.59-30.68-57.97-10.32-8.72-21.5-10.59-30.96-6.37,9.97-8.48,23.49-8.29,35.69,1.95,18.25,15.32,27.64,36.63,29,54.29.12,13.06-1.88,24.16-5.63,32.99v-.08ZM346.12,28.47c-10.44-24.23-34.94-34.36-57.46-25.06-41.86,17.28-67.19,78.06-51.36,123.01,5.9,16.73,17.16,26.89,33.15,31.08,28.34,7.39,57.34-7.47,75.95-42.8,9.46-24.55,13.02-55.35-.27-86.23h0Zm-8.17,70.24c-5.2,11.8-11.57,20.83-18.53,27.01,4.57-5.75,8.79-12.78,12.47-21.11,6.41-17.63,6.8-42.72-3.87-66.49-5.71-12.66-15.01-19.58-25.25-20.25,12.43-2.93,24.51,3.52,31.31,18.45,10.16,22.32,9.89,45.85,3.91,62.38h-.04Zm109.6,45.69c-10.94-31.82-40.34-43.58-68.29-26.78-23.18,13.95-38.07,35.84-45.19,62.66-10.48,39.32,19.15,76.69,57.34,74.07,13.84-.94,24.94-5.63,35.45-14.97,21.69-19.19,31.39-63.83,20.68-94.98h0Zm-18.29,67.74c-7,10.67-14.7,18.45-22.55,23.26,5.43-4.81,10.67-11.02,15.64-18.57,9.11-16.22,13.45-40.89,6.68-66.25-3.6-13.52-11.69-22.01-21.69-24.51,12.74-.66,23.61,7.9,27.95,23.84,6.49,23.84,2.5,46.98-6.02,62.19v.04Zm-104.76,200.68c2.11-14.58,20.64-21.97,22.71-23.3-9.81,2.38-18.61,5.98-24.35,14.03-.23-10.75.66-18.29,3.48-27.36,2.81-9.15,9.97-18.45,18.14-26.23-1.95,1.09-3.24,1.68-4.38,2.46-9.73,6.25-15.44,15.01-19.58,24.51-2.31,5.32-3.6,10.91-5.39,16.38-.23.66-.82,1.21-1.17,1.76,1.37-22.98,2.7-45.85,4.03-68.68h-.39c-2.81,24.27-6.22,46.87-10.67,70.48-1.72-3.91-2.97-5.67-5-9.38-2.03-3.75-7.74-8.95-12.94-10.4,14.89,12.74,14.07,36.31,13.37,38.19,0,0,0,.47-.08,1.21-5.16,0-10.48-.51-15.91-1.68-2.46-.51-4.89-1.09-7.35-1.68.16-2.97.23-5.98.43-8.95.2-3.13.63-6.25.82-9.38.2-2.97.39-5.9.55-8.87l-24.35-.39,24.7-5.59c.04-.9.12-1.8.16-2.7.12-1.92.27-3.87.43-5.78l-21.26-.08,21.65-5.2c.16-1.99.27-3.95.39-5.94.23-3.67.16-7.35.35-11.02.2-3.13.74-6.25.94-9.38.2-2.58,0-5.24.2-7.82.16-2.15.66-4.22.82-6.37.47-5.59.78-11.22,1.25-16.81,0-.43.63-1.09.98-1.13,5.63-.43,11.26-.74,16.85-1.13.98-.08,2.03-.35,2.85-.94,3.36-2.31,2.97-6.96-.7-9.54-6.88-4.81-13.8-9.58-20.72-14.35-3.21-2.23-6.41-4.46-9.58-6.65l-4.46-3.05-94.98,13.49,84.9-20.48c-1.41-.98-2.85-1.92-4.22-2.93-2.03-1.45-6.88-4.81-12.82-8.87l-30.8,2.54,25.72-6.02c-11.37-7.78-24.66-16.81-29.94-20.4-2.19-1.49-4.22-3.28-6.37-4.85-3.09-2.23-4.81-2.07-7.62.59-1.56,1.45-3.05,3.01-4.69,4.38-1.56,1.29-2.81,2.93-4.38,4.18-1.92,1.52-3.64,3.32-5.47,5-2.38,2.19-4.77,4.38-7.15,6.57l-27.4,25.17,23.77-1.99-31.39,9.03-12.08,11.14c-4.57,4.22-9.19,8.44-13.76,12.7-3.36,3.09-6.72,6.18-10.08,9.26-1.99,1.84-2.62,4.07-1.8,6.29,1.02,2.66,2.62,3.71,5.39,3.52,3.28-.23,6.57-.47,9.85-.7,2.66-.2,5.36-.43,8.01-.63.78,3.75,1.56,7.54,2.35,11.3l82.71-16.22-80.87,25.02c1.41,6.84,2.85,13.68,4.26,20.52l36.35-3.95-34.71,11.92c3.17,15.28,6.33,30.53,9.5,45.73l21.11-1.84-19.74,8.36c.82,4.03,1.68,8.01,2.5,12.04-32.48,1.41-57.42-23.49-62.31-60.94-5.43-41.75,7.23-78.45,26.11-113.59,17.59-32.8,40.03-60.78,70.24-81.3,32.13-21.81,65-22.75,94.48,1.99,41.16,34.55,75.4,76.14,93.3,130.32,2.27,6.84,3.17,14.15,4.73,21.26,3.56,39.64-18.18,72.51-49.64,83.22l.16-.08Zm-75.99-35.45l-.94,27.32-2.81-.7c-2.35-.55-4.65-.94-6.92-1.09l.16-7.23-29.2,5.36,29.32-10.79.12-6.72c-1.37-20.05-15.24-35.3-31-34.05h0c-12.9,1.02-23.02,12.74-25.52,27.95l24.82-1.17-25.37,6.92c-.04,1.56,0,3.21.08,4.81l1.21,7.58,28.03-5.36-27.28,10.05,3.17,20.13c-3.13,1.49-6.29,2.89-9.5,4.18l-7.07-41c-1.64-23.8,14.66-44.48,36.43-46.2h0c21.73-1.72,40.69,16.22,42.33,40.03h-.04Zm-24.23,3.36c-.16-2.27,1.41-4.22,3.48-4.38s3.87,1.52,4.03,3.79-1.41,4.22-3.48,4.38-3.87-1.52-4.03-3.79Z"/></svg>