<?xml version="1.0" standalone="no"?>
<!DOCTYPE svg PUBLIC "-//W3C//DTD SVG 20010904//EN"
 "http://www.w3.org/TR/2001/REC-SVG-20010904/DTD/svg10.dtd">
<svg version="1.0" xmlns="http://www.w3.org/2000/svg"
 width="842.000000pt" height="842.000000pt" viewBox="0 0 842.000000 842.000000"
 preserveAspectRatio="xMidYMid meet">
<metadata>
Created by potrace 1.14, written by Peter Selinger 2001-2017
</metadata>
<g transform="translate(0.000000,842.000000) scale(0.100000,-0.100000)"
fill="#000000" stroke="none">
<path d="M5530 8213 c-30 -8 -62 -15 -70 -17 -57 -15 -214 -89 -284 -135 -130
-84 -271 -212 -376 -341 -25 -30 -48 -57 -51 -60 -25 -22 -144 -221 -199 -335
-64 -130 -157 -382 -145 -393 3 -3 1 -10 -4 -16 -8 -10 -38 -144 -46 -206 -20
-160 -26 -374 -12 -480 4 -30 9 -71 11 -90 12 -105 67 -283 123 -393 32 -64
46 -88 93 -151 66 -91 270 -246 322 -246 10 0 18 -4 18 -8 0 -9 127 -51 170
-56 14 -2 36 -6 50 -10 14 -3 50 -8 80 -10 30 -3 57 -5 60 -6 3 -1 9 -1 15 0
5 1 44 3 86 5 214 11 453 110 647 270 73 61 207 205 277 299 52 70 163 257
170 286 1 3 16 50 34 105 30 91 57 194 67 255 2 14 7 36 9 50 11 53 13 68 21
126 9 68 11 454 2 499 -4 17 -12 64 -19 105 -7 41 -13 77 -14 80 -1 3 -5 21
-9 40 -27 123 -152 439 -177 448 -5 2 -9 8 -9 14 0 30 -208 248 -236 248 -8 0
-14 4 -14 8 0 4 -33 24 -72 44 -67 33 -109 48 -223 77 -55 14 -228 10 -295 -6z
m330 -319 c151 -39 281 -162 365 -348 31 -69 47 -106 50 -116 0 -3 8 -27 17
-55 40 -126 63 -237 74 -351 15 -159 7 -337 -22 -465 -2 -11 -6 -29 -9 -41
-34 -156 -179 -416 -305 -549 l-61 -64 60 90 c76 115 143 248 175 345 13 40
19 63 32 135 41 223 39 513 -5 662 -5 17 -7 34 -4 36 2 3 0 14 -5 24 -6 10
-12 32 -15 48 -18 105 -112 327 -176 415 -93 128 -232 222 -343 229 -10 0 -18
5 -18 10 0 15 125 12 190 -5z"/>
<path d="M2595 8189 c-22 -4 -51 -10 -64 -13 -178 -38 -372 -182 -497 -367
-44 -65 -144 -255 -144 -274 0 -4 -6 -21 -14 -38 -29 -65 -81 -260 -92 -345
-2 -20 -7 -48 -9 -62 -20 -100 -21 -407 -1 -545 20 -144 22 -158 30 -183 3 -9
8 -30 10 -47 3 -16 11 -46 16 -65 6 -19 13 -46 16 -60 3 -13 10 -30 16 -37 6
-7 8 -13 5 -13 -19 0 115 -306 168 -384 13 -20 22 -36 19 -36 -3 0 6 -14 20
-31 14 -17 26 -34 26 -38 0 -4 8 -16 18 -27 9 -10 30 -37 47 -59 32 -43 170
-184 221 -225 99 -81 271 -161 377 -176 171 -24 347 3 507 79 36 17 67 31 70
31 5 1 128 83 169 113 70 51 201 204 263 308 53 87 108 208 132 290 2 6 6 17
9 25 6 15 40 159 51 215 14 75 26 212 30 338 2 102 -23 255 -65 402 -88 303
-207 534 -394 764 -55 68 -216 221 -290 275 -22 17 -42 32 -45 35 -17 19 -167
97 -222 116 -119 40 -282 55 -383 34z m275 -371 c8 -3 29 -8 45 -13 46 -12
137 -60 191 -101 67 -50 211 -196 265 -269 24 -33 47 -61 52 -63 4 -2 7 -8 7
-12 0 -5 14 -29 30 -54 17 -25 53 -91 80 -148 94 -200 134 -358 134 -538 0
-112 -15 -297 -24 -307 -3 -4 -5 -11 -14 -63 -5 -25 -13 -51 -18 -57 -6 -7 -8
-13 -4 -13 3 0 0 -15 -8 -34 -8 -19 -12 -37 -9 -39 2 -3 0 -8 -6 -11 -6 -4 -8
2 -5 16 24 121 45 372 34 408 -1 3 -3 30 -6 60 -12 132 -87 368 -162 510 -139
263 -356 503 -548 606 -49 26 -148 54 -203 58 -68 4 -173 -11 -203 -30 -7 -4
-8 -3 -4 4 13 21 98 66 160 83 56 16 175 19 216 7z"/>
<path d="M7578 6185 c-3 -3 -41 -7 -84 -9 -110 -6 -265 -46 -319 -82 -11 -8
-26 -14 -34 -14 -8 0 -22 -6 -30 -14 -9 -8 -34 -24 -56 -36 -90 -49 -205 -141
-315 -250 -136 -134 -148 -149 -244 -295 -59 -88 -159 -271 -162 -295 0 -3 -8
-23 -18 -45 -37 -85 -93 -268 -111 -360 -29 -156 -24 -337 14 -487 22 -87 70
-211 83 -216 4 -2 8 -11 8 -19 0 -25 108 -180 173 -250 70 -74 175 -155 267
-205 105 -58 201 -89 350 -113 36 -6 186 -6 251 0 261 23 540 179 724 405 73
90 214 350 207 383 -1 4 2 7 8 7 6 0 9 3 8 8 -1 4 10 45 25 92 23 72 47 166
63 245 2 11 6 38 9 60 3 22 8 63 12 90 9 62 9 370 1 445 -33 287 -151 553
-318 718 -102 101 -233 178 -355 208 -54 13 -60 14 -96 17 -19 2 -40 7 -46 10
-6 4 -12 4 -15 2z m149 -319 c120 -32 211 -100 288 -215 25 -38 45 -72 45 -76
0 -4 6 -21 14 -38 18 -41 36 -96 42 -127 3 -14 9 -41 14 -60 9 -35 11 -46 26
-145 10 -65 11 -356 1 -420 -14 -99 -18 -121 -29 -160 -5 -22 -11 -47 -13 -55
-17 -85 -92 -255 -151 -341 -87 -126 -229 -276 -319 -338 l-50 -34 56 59 c83
88 95 102 159 189 46 64 122 200 125 225 0 3 6 15 13 27 6 12 13 30 15 40 2
10 7 25 10 33 9 23 31 103 33 122 0 9 4 25 8 35 4 10 10 36 12 58 3 22 7 45 9
52 9 29 19 166 18 268 -1 147 -12 250 -39 365 -9 36 -17 74 -19 84 -8 36 -27
91 -46 133 -10 24 -19 45 -19 48 0 2 -19 31 -41 64 -35 51 -96 114 -151 156
-17 14 -90 48 -106 51 -8 1 -16 5 -20 8 -10 11 63 6 115 -8z"/>
<path d="M555 6046 c-33 -8 -71 -19 -85 -24 -14 -5 -29 -11 -35 -12 -5 -1 -22
-11 -37 -22 -16 -11 -28 -17 -28 -13 0 12 -115 -83 -158 -130 -38 -42 -132
-189 -132 -207 0 -4 -5 -19 -12 -35 -15 -36 -21 -61 -44 -158 -29 -121 -26
-468 6 -645 24 -139 42 -206 84 -323 51 -140 96 -232 181 -375 91 -152 307
-403 420 -487 22 -16 42 -33 45 -36 13 -16 162 -90 220 -109 86 -30 105 -32
243 -35 80 -2 137 2 175 12 31 8 64 16 72 18 52 11 204 80 228 102 7 7 17 13
22 13 36 0 260 231 260 269 0 5 3 11 8 13 12 5 88 176 98 223 1 6 7 30 13 55
7 25 13 58 16 73 2 15 7 47 10 70 12 78 7 301 -10 402 -22 141 -25 157 -30
165 -2 4 -7 20 -9 37 -17 94 -83 262 -127 325 -11 15 -18 28 -15 28 8 0 -85
134 -96 138 -4 2 -8 8 -8 14 0 18 -140 172 -218 240 -98 87 -129 111 -207 163
-93 61 -135 86 -225 130 -65 32 -176 79 -210 90 -62 18 -85 24 -89 20 -2 -3
-10 0 -17 6 -21 17 -241 21 -309 5z m370 -307 c121 -28 287 -108 430 -207 70
-49 231 -199 275 -257 113 -148 175 -271 206 -405 15 -65 25 -119 30 -160 3
-25 7 -57 10 -72 7 -44 8 -197 1 -205 -4 -3 -8 5 -8 18 -3 50 -6 75 -13 119
-11 62 -45 199 -57 232 -6 15 -11 31 -11 35 1 11 -81 165 -95 181 -7 7 -13 17
-13 22 0 5 -6 15 -12 22 -7 7 -33 39 -57 71 -210 276 -605 508 -886 521 -104
5 -238 -35 -314 -93 -30 -23 -33 -23 -23 -5 14 26 91 101 123 119 37 22 110
55 128 59 9 2 23 6 31 9 40 16 177 14 255 -4z"/>
<path d="M4197 5254 c-1 -1 -24 -5 -52 -8 -108 -12 -143 -18 -228 -42 -223
-62 -420 -166 -675 -356 -52 -39 -103 -78 -112 -87 -10 -9 -44 -38 -76 -65
-58 -49 -336 -324 -384 -381 -43 -51 -175 -218 -213 -270 -20 -27 -40 -55 -45
-60 -43 -53 -232 -355 -312 -499 -68 -124 -233 -462 -232 -476 0 -3 -5 -14
-11 -25 -6 -11 -12 -22 -12 -25 -1 -3 -8 -18 -15 -35 -60 -137 -172 -484 -195
-608 -3 -12 -9 -44 -15 -72 -12 -64 -19 -102 -25 -145 -3 -19 -7 -44 -10 -55
-10 -51 -19 -225 -19 -375 0 -151 4 -226 19 -335 3 -22 7 -53 9 -70 3 -25 16
-88 41 -195 1 -9 20 -60 40 -115 149 -396 412 -650 773 -745 61 -16 94 -20
204 -27 l97 -5 -9 33 c-5 19 -11 48 -13 64 -3 17 -8 42 -11 57 -17 79 -20 73
42 98 31 12 80 32 107 45 28 12 66 28 85 35 19 7 39 17 44 22 6 4 18 8 27 8
10 0 20 4 24 10 3 5 -14 7 -43 4 -239 -23 -332 -27 -333 -12 0 7 -2 22 -5 33
-2 11 -6 31 -8 45 -3 14 -12 59 -21 100 -9 41 -19 86 -21 100 -2 14 -16 75
-29 137 -14 62 -28 129 -31 150 -3 21 -9 54 -14 73 -5 19 -11 46 -14 60 -3 14
-10 49 -15 79 -13 62 -12 63 59 85 97 31 544 186 549 192 3 3 -8 3 -24 0 -17
-2 -61 -7 -98 -11 -37 -3 -76 -8 -85 -10 -9 -1 -51 -6 -92 -10 -41 -4 -88 -9
-105 -11 -16 -1 -58 -5 -91 -8 -74 -7 -136 -16 -146 -22 -4 -3 -10 5 -13 18
-2 13 -10 43 -15 68 -6 25 -12 54 -14 65 -2 11 -7 36 -10 55 -4 19 -9 44 -11
55 -2 11 -4 20 -5 20 -1 0 -3 9 -5 20 -1 11 -6 35 -10 52 -5 24 -4 34 6 37 85
27 157 49 171 51 9 2 25 8 35 13 10 6 20 10 23 9 3 0 44 12 92 27 48 15 95 29
105 31 10 2 30 8 46 14 15 6 27 8 27 5 0 -4 6 -1 14 5 8 7 23 14 35 16 11 2
80 23 153 45 73 23 156 49 183 57 28 8 57 17 65 20 8 4 20 7 25 8 6 2 69 21
141 44 71 23 139 43 150 46 32 7 93 31 101 39 10 10 3 9 -262 -45 -82 -17
-161 -32 -175 -34 -14 -2 -36 -6 -50 -9 -46 -10 -75 -16 -100 -21 -14 -3 -36
-7 -50 -10 -14 -2 -38 -7 -55 -10 -16 -3 -41 -7 -55 -10 -22 -5 -69 -14 -150
-30 -14 -3 -59 -12 -100 -20 -41 -8 -86 -17 -100 -20 -14 -3 -47 -9 -75 -15
-27 -5 -61 -11 -75 -14 -14 -2 -36 -7 -50 -10 -14 -3 -36 -8 -50 -10 -14 -2
-29 -5 -35 -6 -26 -6 -33 4 -45 63 -7 34 -14 71 -17 82 -2 11 -5 25 -6 30 -4
19 -18 35 -26 31 -8 -5 -191 -19 -268 -20 -29 -1 -53 -4 -53 -8 0 -3 -14 -1
-32 5 -35 13 -68 60 -68 95 0 45 18 67 191 223 44 39 97 88 118 108 21 20 85
79 141 131 57 52 116 106 130 120 115 108 130 119 185 135 32 10 65 19 74 20
9 2 17 4 19 5 1 2 5 3 10 4 44 12 100 28 112 33 8 3 22 7 30 9 8 2 56 15 105
30 50 15 102 29 118 32 39 6 41 17 4 15 -18 -1 -32 -2 -32 -3 0 0 -22 -3 -50
-5 -150 -11 -215 -16 -255 -21 l-45 -5 60 57 c109 104 200 188 274 254 39 36
99 91 132 123 32 31 61 57 63 57 2 0 26 21 54 48 27 26 96 90 152 142 57 52
125 116 153 142 85 80 106 80 216 -5 50 -39 238 -169 511 -354 l115 -78 -135
-32 c-74 -18 -146 -34 -160 -37 -57 -9 -126 -29 -135 -39 -7 -7 -7 -8 0 -5 9
5 64 11 225 23 30 3 80 7 110 10 132 13 200 15 200 5 0 -6 5 -10 10 -10 12 0
173 -111 178 -122 2 -5 8 -8 13 -8 15 0 98 -63 94 -70 -3 -4 -22 -11 -42 -15
-21 -4 -112 -25 -203 -47 -91 -22 -172 -41 -180 -43 -8 -2 -35 -8 -60 -15 -25
-7 -54 -14 -65 -16 -11 -2 -67 -15 -125 -30 -58 -14 -112 -27 -120 -29 -20 -4
-170 -40 -295 -71 -55 -13 -111 -27 -125 -29 -14 -3 -86 -21 -160 -40 -108
-28 -119 -39 -22 -20 10 1 44 6 77 10 33 4 69 9 80 10 83 13 134 19 158 20 15
0 27 2 27 5 0 3 8 6 18 6 23 1 121 13 146 19 12 3 41 7 66 10 25 2 56 6 70 9
23 4 57 9 145 21 31 4 101 14 145 21 14 2 45 6 70 9 25 3 54 7 66 9 12 2 45 7
74 11 29 4 62 9 74 11 12 2 46 7 76 10 30 3 57 7 60 9 3 2 33 6 67 10 34 3 72
8 84 10 92 18 90 18 185 -47 50 -35 196 -136 325 -225 129 -90 245 -173 256
-185 28 -30 36 -84 17 -119 -24 -48 -32 -50 -269 -65 -55 -4 -108 -6 -117 -6
-20 1 -29 -22 -33 -91 -10 -161 -17 -245 -21 -267 -5 -24 -7 -54 -19 -245 -2
-44 -6 -96 -9 -116 -3 -20 -7 -110 -10 -200 -3 -89 -9 -166 -13 -170 -5 -4
-39 -14 -78 -23 -38 -9 -77 -18 -85 -20 -129 -32 -191 -46 -206 -46 -9 0 -15
-3 -11 -6 3 -3 89 -6 190 -6 l185 0 -2 -48 c-2 -25 -6 -52 -10 -58 -4 -7 -3
-12 2 -12 22 0 -2 -41 -27 -46 -14 -3 -42 -10 -61 -15 -19 -4 -46 -10 -60 -12
-14 -3 -43 -10 -65 -15 -22 -6 -51 -13 -65 -16 -25 -5 -51 -10 -102 -22 -60
-12 -32 -21 75 -21 62 -1 154 -2 205 -2 l94 -1 -7 -102 c-3 -57 -8 -121 -10
-143 -3 -22 -6 -80 -9 -128 -2 -49 -6 -91 -9 -94 -11 -10 16 -52 32 -51 9 1
36 -5 61 -12 25 -7 54 -14 65 -15 11 -2 45 -7 75 -11 30 -4 89 -8 130 -8 l75
-1 -1 100 c-1 116 -8 171 -38 280 -18 65 -77 198 -96 215 -3 3 -17 21 -30 40
-13 19 -34 44 -47 55 -39 34 -26 38 29 8 80 -43 156 -127 213 -236 27 -53 51
-95 52 -94 1 2 4 16 7 32 3 15 10 51 15 79 15 74 21 107 27 141 21 122 44 266
48 295 7 44 13 89 22 143 3 23 8 58 11 77 2 19 6 49 8 65 2 17 5 30 6 30 1 0
3 11 4 25 2 27 14 112 19 145 2 11 7 54 12 95 4 41 8 80 9 85 1 6 3 24 4 40 2
26 4 27 10 10 5 -11 6 -24 3 -29 -3 -5 -6 -43 -8 -85 -1 -42 -5 -114 -8 -161
-8 -111 -15 -234 -21 -340 -3 -47 -7 -125 -10 -175 -3 -49 -8 -128 -10 -175
-2 -47 -7 -127 -10 -178 -3 -50 -4 -92 -1 -92 4 0 35 87 37 105 0 6 5 16 11
23 6 6 8 12 5 12 -7 0 48 161 74 214 10 22 19 46 19 53 0 7 4 13 9 13 5 0 13
10 17 23 8 25 75 130 86 135 5 2 8 8 8 13 0 15 140 151 185 180 22 14 52 34
68 43 37 25 34 17 -15 -36 -216 -230 -295 -394 -334 -692 -7 -58 -13 -218 -8
-227 1 -3 31 21 65 53 33 32 80 68 103 80 22 11 43 23 46 27 4 5 58 28 85 35
6 2 17 6 25 9 24 11 110 35 110 32 0 -2 -30 -20 -67 -40 -140 -76 -247 -173
-296 -267 -24 -47 -46 -118 -36 -118 2 0 27 9 56 20 231 88 484 299 628 525
41 66 85 148 85 161 0 8 5 14 10 14 6 0 10 9 10 20 0 11 4 20 8 20 5 0 9 6 10
13 0 6 14 48 30 93 16 44 32 94 35 110 3 16 13 61 22 99 34 157 38 383 10 540
-3 17 -7 39 -9 50 -2 11 -6 27 -9 35 -2 8 -10 47 -17 85 -7 39 -15 75 -19 80
-3 6 -6 19 -7 30 -2 18 -64 197 -94 270 -7 17 -16 40 -21 53 -5 12 -13 32 -19
45 -75 175 -103 234 -169 362 -43 83 -101 187 -130 233 -28 46 -51 85 -51 88
0 13 -240 357 -317 454 -165 209 -291 349 -499 555 -88 88 -196 192 -239 230
-43 39 -86 79 -97 89 -10 11 -18 17 -18 14 0 -3 -19 13 -42 35 -68 62 -216
170 -303 220 -81 46 -240 115 -285 123 -14 3 -38 9 -55 14 -29 9 -65 15 -150
27 -40 5 -204 11 -208 7z"/>
<path d="M3785 2350 c-8 -13 5 -13 25 0 13 8 13 10 -2 10 -9 0 -20 -4 -23 -10z"/>
<path d="M3838 1945 c-2 -2 -24 -6 -50 -9 -168 -23 -340 -128 -458 -281 -61
-79 -126 -221 -145 -315 -2 -8 -4 -15 -5 -15 -13 0 -18 -239 -6 -300 4 -22 9
-53 11 -70 3 -16 7 -41 10 -55 3 -14 8 -38 10 -55 3 -16 10 -55 15 -85 6 -30
12 -68 14 -85 4 -28 8 -45 21 -115 3 -14 7 -41 10 -60 3 -19 7 -46 10 -60 3
-14 8 -41 11 -60 9 -61 9 -61 61 -39 140 59 130 47 113 140 -10 60 -17 104
-26 164 -3 22 -10 59 -14 83 -7 41 -6 44 19 53 14 5 33 12 41 16 8 3 20 7 25
8 6 2 66 24 135 50 69 26 152 56 185 67 64 21 101 44 44 28 -19 -6 -47 -12
-64 -15 -16 -2 -55 -9 -85 -15 -30 -6 -68 -13 -85 -15 -32 -5 -45 -8 -116 -24
-49 -11 -119 -21 -119 -17 0 1 -5 29 -11 62 -16 85 -18 153 -5 164 7 5 27 12
46 15 18 3 37 8 42 11 4 3 16 7 25 9 10 2 63 16 117 30 55 15 109 29 121 31
13 2 38 11 56 19 l34 14 -60 -4 c-33 -2 -134 -7 -224 -10 -134 -5 -162 -4
-155 7 5 7 10 24 12 38 14 107 111 275 207 357 48 41 136 90 171 96 10 1 24 5
29 8 6 3 48 5 95 4 151 -3 258 -59 383 -203 15 -18 27 -34 27 -37 0 -3 12 -24
26 -46 26 -42 69 -147 78 -191 19 -92 22 -123 22 -197 l-1 -84 -40 -13 c-22
-8 -49 -18 -60 -23 -26 -13 -136 -52 -155 -56 -8 -2 -33 -11 -55 -20 -22 -10
-76 -31 -120 -47 -79 -28 -79 -29 -30 -23 28 3 61 7 75 10 79 17 173 34 178
34 4 -1 9 0 12 1 28 10 177 34 187 29 4 -2 7 -30 6 -62 -1 -31 3 -60 9 -63 5
-3 27 -7 48 -9 22 -2 56 -9 75 -15 20 -7 39 -9 42 -6 8 7 16 236 16 436 1 129
-3 179 -17 230 -26 91 -78 201 -130 273 -47 66 -157 177 -175 177 -6 0 -11 5
-11 10 0 6 -7 10 -15 10 -8 0 -15 3 -15 8 0 15 -152 79 -223 93 -48 10 -193
20 -199 14z"/>
<path d="M4204 1195 c-58 -58 -4 -148 72 -122 40 14 54 98 20 126 -27 22 -67
20 -92 -4z"/>
</g>
</svg>
